<svg width="154" height="58" viewBox="0 0 154 58" fill="none" xmlns="http://www.w3.org/2000/svg">
<path fill-rule="evenodd" clip-rule="evenodd" d="M154 0.000244141V58.0002H37L0 29.0002L37 0.000244141H154Z" fill="url(#paint0_linear)"/>
<mask id="mask0" mask-type="alpha" maskUnits="userSpaceOnUse" x="0" y="0" width="154" height="59">
<path fill-rule="evenodd" clip-rule="evenodd" d="M154 0.000244141V58.0002H37L0 29.0002L37 0.000244141H154Z" fill="white"/>
</mask>
<g mask="url(#mask0)">
</g>
<path fill-rule="evenodd" clip-rule="evenodd" d="M55 42.2494H57.999C58.378 42.2494 58.7618 42.2886 59.1503 42.3671C59.5388 42.4455 59.887 42.5793 60.195 42.7685C60.5029 42.9576 60.754 43.2137 60.9483 43.5367C61.1425 43.8597 61.2397 44.2657 61.2397 44.7548C61.2397 45.2715 61.0786 45.7214 60.7564 46.1044C60.4342 46.4873 60.0031 46.7388 59.463 46.8587V46.8864C60.1168 46.9603 60.6593 47.2071 61.0904 47.627C61.5216 48.0468 61.7371 48.6167 61.7371 49.3364C61.7371 49.7425 61.6495 50.1139 61.4742 50.4507C61.2989 50.7875 61.0502 51.0736 60.728 51.3089C60.4058 51.5442 60.0126 51.7265 59.5483 51.8557C59.084 51.9849 58.5628 52.0495 57.9848 52.0495H55V42.2494ZM56.0234 46.5404H58.0843C58.3307 46.5404 58.5794 46.5127 58.8305 46.4573C59.0816 46.402 59.3114 46.3074 59.5198 46.1736C59.7283 46.0398 59.8965 45.8621 60.0244 45.6407C60.1523 45.4192 60.2163 45.147 60.2163 44.824C60.2163 44.5102 60.1523 44.2449 60.0244 44.0281C59.8965 43.8112 59.7236 43.6336 59.5056 43.4952C59.2877 43.3567 59.0319 43.2575 58.7381 43.1976C58.4444 43.1376 58.1317 43.1076 57.8 43.1076H56.0234V46.5404ZM56.0234 51.1913H57.928C58.2975 51.1913 58.6505 51.1567 58.9868 51.0874C59.3232 51.0182 59.617 50.9075 59.8681 50.7552C60.1192 50.603 60.3205 50.4046 60.4721 50.16C60.6238 49.9155 60.6996 49.6225 60.6996 49.2811C60.6996 48.6351 60.4745 48.153 60.0244 47.8346C59.5743 47.5162 58.9371 47.3571 58.1127 47.3571H56.0234V51.1913ZM65.1379 51.1636H70.5247V52.0495H64.1145V42.2494H70.3542V43.1353H65.1379V46.5127H70.013V47.3847H65.1379V51.1636ZM77.4788 43.8274C77.2609 43.5321 76.9813 43.2945 76.6402 43.1145C76.2991 42.9346 75.8869 42.8446 75.4036 42.8446C75.1573 42.8446 74.9062 42.8815 74.6503 42.9553C74.3945 43.0292 74.1623 43.1422 73.9539 43.2945C73.7454 43.4467 73.5772 43.6382 73.4493 43.8689C73.3214 44.0996 73.2574 44.3718 73.2574 44.6856C73.2574 44.9993 73.319 45.2577 73.4422 45.4607C73.5654 45.6637 73.7288 45.8368 73.9326 45.9798C74.1363 46.1228 74.3684 46.2405 74.629 46.3328C74.8896 46.425 75.162 46.5173 75.4463 46.6096C75.7969 46.7203 76.1498 46.8403 76.5052 46.9695C76.8605 47.0987 77.1803 47.2671 77.4646 47.4747C77.7489 47.6823 77.981 47.9453 78.161 48.2637C78.3411 48.5821 78.4311 48.9858 78.4311 49.4749C78.4311 49.9639 78.334 50.3861 78.1397 50.7414C77.9455 51.0967 77.6944 51.3897 77.3864 51.6204C77.0785 51.8511 76.7279 52.0218 76.3346 52.1325C75.9414 52.2432 75.5458 52.2986 75.1478 52.2986C74.8446 52.2986 74.5414 52.2686 74.2382 52.2086C73.9349 52.1487 73.6459 52.0587 73.3711 51.9387C73.0963 51.8188 72.8405 51.6665 72.6036 51.4819C72.3667 51.2974 72.1583 51.0851 71.9782 50.8452L72.8595 50.2085C73.0774 50.5591 73.383 50.8521 73.7762 51.0874C74.1695 51.3228 74.6314 51.4404 75.162 51.4404C75.4179 51.4404 75.6784 51.4012 75.9438 51.3228C76.2091 51.2443 76.4483 51.1244 76.6615 50.9629C76.8747 50.8014 77.05 50.603 77.1874 50.3677C77.3248 50.1324 77.3935 49.8578 77.3935 49.5441C77.3935 49.2026 77.3248 48.9189 77.1874 48.6928C77.05 48.4667 76.8676 48.2775 76.6402 48.1253C76.4128 47.973 76.1522 47.8461 75.8585 47.7446C75.5647 47.6431 75.2568 47.5416 74.9346 47.4401C74.603 47.3386 74.2761 47.2232 73.9539 47.0941C73.6317 46.9649 73.3427 46.7965 73.0869 46.5888C72.831 46.3812 72.6249 46.1251 72.4686 45.8206C72.3122 45.5161 72.2341 45.1424 72.2341 44.6994C72.2341 44.2288 72.3312 43.8228 72.5254 43.4813C72.7197 43.1399 72.9732 42.8584 73.2859 42.637C73.5986 42.4155 73.9444 42.254 74.3234 42.1525C74.7025 42.051 75.0767 42.0002 75.4463 42.0002C76.1285 42.0002 76.7113 42.1179 77.1945 42.3532C77.6778 42.5885 78.0426 42.8677 78.289 43.1906L77.4788 43.8274ZM83.6653 52.0495H82.642V43.1353H79.2734V42.2494H87.0339V43.1353H83.6653V52.0495ZM91.9024 42.2494H94.745C95.2567 42.2494 95.721 42.3025 96.1379 42.4086C96.5549 42.5147 96.9126 42.6762 97.2111 42.893C97.5095 43.1099 97.7393 43.3821 97.9004 43.7097C98.0615 44.0373 98.142 44.4226 98.142 44.8655C98.142 45.3085 98.0591 45.6937 97.8933 46.0213C97.7275 46.3489 97.4953 46.6211 97.1968 46.838C96.8984 47.0548 96.5383 47.2186 96.1166 47.3294C95.695 47.4401 95.2283 47.4955 94.7166 47.4955H92.9257V52.0495H91.9024V42.2494ZM92.9257 46.6511H94.6598C95.4652 46.6511 96.0764 46.4989 96.4933 46.1943C96.9102 45.8898 97.1187 45.4469 97.1187 44.8655C97.1187 44.2565 96.9031 43.8112 96.472 43.5298C96.0408 43.2483 95.4368 43.1076 94.6598 43.1076H92.9257V46.6511ZM101.244 52.0495H100.221V42.2494H103.177C103.67 42.2494 104.127 42.2955 104.549 42.3878C104.971 42.4801 105.335 42.63 105.643 42.8377C105.951 43.0453 106.191 43.3152 106.361 43.6474C106.532 43.9796 106.617 44.3857 106.617 44.8655C106.617 45.2254 106.551 45.553 106.418 45.8483C106.285 46.1436 106.105 46.3997 105.878 46.6165C105.65 46.8334 105.38 47.0064 105.068 47.1356C104.755 47.2648 104.414 47.3478 104.044 47.3847L106.986 52.0495H105.736L102.95 47.4678H101.244V52.0495ZM101.244 46.6096H103.021C103.845 46.6096 104.48 46.4643 104.926 46.1736C105.371 45.8829 105.594 45.4469 105.594 44.8655C105.594 44.5425 105.532 44.2703 105.409 44.0488C105.286 43.8274 105.115 43.6474 104.897 43.509C104.679 43.3706 104.414 43.2691 104.101 43.2045C103.788 43.1399 103.443 43.1076 103.064 43.1076H101.244V46.6096ZM109.833 52.0495H108.81V42.2494H109.833V52.0495ZM121.051 50.4715C120.88 50.7206 120.674 50.9559 120.433 51.1774C120.191 51.3989 119.912 51.5927 119.594 51.7588C119.277 51.9249 118.926 52.0564 118.542 52.1533C118.159 52.2502 117.739 52.2986 117.284 52.2986C116.526 52.2986 115.825 52.1694 115.181 51.911C114.537 51.6527 113.982 51.2951 113.518 50.8383C113.054 50.3815 112.691 49.8394 112.431 49.2119C112.17 48.5844 112.04 47.8969 112.04 47.1494C112.04 46.402 112.172 45.7145 112.438 45.087C112.703 44.4595 113.07 43.9173 113.539 43.4606C114.008 43.0038 114.563 42.6462 115.202 42.3878C115.842 42.1294 116.536 42.0002 117.284 42.0002C117.654 42.0002 118.016 42.0372 118.372 42.111C118.727 42.1848 119.061 42.2886 119.374 42.4224C119.686 42.5562 119.971 42.7177 120.227 42.9069C120.482 43.0961 120.696 43.3106 120.866 43.5505L120.013 44.1596C119.909 44.0027 119.769 43.8458 119.594 43.689C119.419 43.5321 119.213 43.3937 118.976 43.2737C118.739 43.1537 118.481 43.0568 118.201 42.983C117.922 42.9092 117.621 42.8723 117.299 42.8723C116.645 42.8723 116.06 42.9876 115.543 43.2183C115.027 43.449 114.589 43.7605 114.229 44.1527C113.868 44.5448 113.594 44.9993 113.404 45.5161C113.215 46.0328 113.12 46.5773 113.12 47.1494C113.12 47.7216 113.217 48.266 113.411 48.7828C113.606 49.2995 113.883 49.754 114.243 50.1462C114.603 50.5384 115.041 50.8498 115.558 51.0805C116.074 51.3112 116.654 51.4266 117.299 51.4266C117.877 51.4266 118.426 51.3112 118.947 51.0805C119.469 50.8498 119.904 50.4807 120.255 49.9732L121.051 50.4715ZM123.912 51.1636H129.298V52.0495H122.888V42.2494H129.128V43.1353H123.912V46.5127H128.787V47.3847H123.912V51.1636Z" fill="white"/>
<path fill-rule="evenodd" clip-rule="evenodd" d="M55 18.1811V15.7449C55.0758 10.5404 58.108 9.24847 62.1635 9.17465V6.00024H64.3619V9.28539C66.7497 9.46994 70.0851 9.91288 71.6012 10.0605V12.2014C69.7061 12.2014 62.5047 11.8692 62.5047 11.8692C59.8515 11.7585 57.8048 12.2383 57.8048 15.7449V18.1811C57.8048 21.134 59.8515 21.7985 61.7466 21.7985H66.6739C71.9044 21.7985 72.6246 25.1205 72.6246 28.1473V30.6573C72.6246 35.7511 68.4174 36.9322 64.3619 36.7108V39.7375H62.1635V36.5262C59.7757 36.2678 56.8572 35.8987 55.8718 35.788V33.7578C57.3878 33.7578 61.4055 33.9793 64.9304 33.9793C66.4844 33.9793 69.8198 33.7209 69.8198 30.6573V28.1473C69.8198 26.0433 69.1376 24.5299 66.6739 24.5299H61.7466C56.175 24.5299 55 21.0971 55 18.1811ZM76.2253 14.4899V12.5336L82.5929 9.39612H85.3976V36.4155H82.5929V12.4967L76.2253 14.4899ZM89.5669 12.0538V10.3558C92.9023 9.21156 97.1852 9.24847 101.62 9.3223C105.789 9.39612 108.101 12.0169 108.101 15.4127V17.9596C108.101 20.6542 107.116 22.389 105.6 22.9796C107.154 23.9393 108.101 25.4896 108.101 28.2949V30.4727C108.101 34.4961 105.979 36.6739 101.354 36.6739C97.0336 36.6739 93.1297 36.7846 89.7943 35.6403L89.8322 33.9055H101.127C103.136 33.9055 105.221 33.5733 105.221 30.4727V28.2949C105.221 25.4158 103.401 24.4561 101.354 24.3823L92.1442 24.1239V21.983L101.354 21.6139C103.97 21.5032 105.296 20.2112 105.296 17.9596V15.4127C105.296 13.0135 103.325 12.0538 101.354 12.0538H89.5669ZM113.218 19.5099V14.6745C113.218 10.5404 115.757 9.17465 119.32 9.17465H124.968C129.099 9.21156 132.093 11.7585 132.093 23.3857C132.093 33.1673 128.72 36.4524 125.574 36.4524C121.746 36.4524 117.425 36.4155 114.128 35.7511V33.7209H125.081C128.53 33.7209 129.213 27.3352 129.288 24.2346C126.067 24.6037 122.125 25.0098 119.32 25.0098C114.165 25.0098 113.218 22.389 113.218 19.5099ZM115.985 19.5099C115.985 21.7615 117.577 22.2783 119.32 22.2783H129.288C129.288 18.8086 129.137 11.9061 124.968 11.9061H119.32C117.387 11.9061 115.985 12.2752 115.985 14.896V19.5099Z" fill="white"/>
<defs>
<linearGradient id="paint0_linear" x1="231" y1="29.0002" x2="192.739" y2="130.59" gradientUnits="userSpaceOnUse">
<stop stop-color="#6E61F5"/>
<stop offset="1" stop-color="#843CF6"/>
</linearGradient>
</defs>
</svg>
