<svg width="117" height="16" viewBox="0 0 117 16" fill="none" xmlns="http://www.w3.org/2000/svg">
<path fill-rule="evenodd" clip-rule="evenodd" d="M0.662598 8.14542C0.662598 6.3593 1.3277 4.82522 2.65792 3.54316C3.98258 2.2611 5.57437 1.62007 7.43334 1.62007C9.27005 1.62007 10.8451 2.26657 12.1587 3.5596C13.4778 4.85262 14.1373 6.40587 14.1373 8.21939C14.1373 10.0439 13.475 11.5916 12.1503 12.8627C10.8201 14.1393 9.21439 14.7776 7.33315 14.7776C5.66899 14.7776 4.1746 14.2105 2.84994 13.0764C1.3917 11.8217 0.662598 10.1781 0.662598 8.14542ZM2.62453 8.17008C2.62453 9.57268 3.10318 10.726 4.06049 11.63C5.01224 12.534 6.11146 12.986 7.3582 12.986C8.71069 12.986 9.85165 12.5258 10.7811 11.6053C11.7106 10.6739 12.1754 9.5398 12.1754 8.20295C12.1754 6.84966 11.7162 5.71554 10.7978 4.80056C9.88505 3.88011 8.75521 3.41989 7.40829 3.41989C6.06694 3.41989 4.93432 3.88011 4.0104 4.80056C3.08648 5.71006 2.62453 6.83322 2.62453 8.17008ZM16.3702 6.54285H18.257V7.2825C18.9137 6.64146 19.654 6.32095 20.4777 6.32095C21.4239 6.32095 22.1613 6.61407 22.6901 7.20031C23.1465 7.69889 23.3747 8.5125 23.3747 9.64116V14.5475H21.4879V10.0767C21.4879 9.28776 21.3766 8.74262 21.1539 8.44128C20.9369 8.13446 20.5417 7.98105 19.9684 7.98105C19.3451 7.98105 18.9026 8.18377 18.641 8.58921C18.385 8.98917 18.257 9.68772 18.257 10.6849V14.5475H16.3702V6.54285ZM27.7698 0.666748V14.5475H25.8914V0.666748H27.7698ZM32.1734 6.54285V14.5475H30.2949V6.54285H32.1734ZM30.0111 3.21443C30.0111 2.89117 30.1307 2.61175 30.3701 2.37616C30.6094 2.14057 30.896 2.02277 31.23 2.02277C31.5695 2.02277 31.8589 2.14057 32.0982 2.37616C32.3376 2.60627 32.4572 2.88843 32.4572 3.22265C32.4572 3.55686 32.3376 3.84176 32.0982 4.07735C31.8645 4.31294 31.5778 4.43074 31.2383 4.43074C30.8988 4.43074 30.6094 4.31294 30.3701 4.07735C30.1307 3.84176 30.0111 3.55412 30.0111 3.21443ZM34.6985 6.54285H36.5852V7.2825C37.242 6.64146 37.9822 6.32095 38.806 6.32095C39.7522 6.32095 40.4896 6.61407 41.0184 7.20031C41.4748 7.69889 41.703 8.5125 41.703 9.64116V14.5475H39.8162V10.0767C39.8162 9.28776 39.7048 8.74262 39.4822 8.44128C39.2652 8.13446 38.87 7.98105 38.2967 7.98105C37.6733 7.98105 37.2309 8.18377 36.9693 8.58921C36.7133 8.98917 36.5852 9.68772 36.5852 10.6849V14.5475H34.6985V6.54285ZM51.6249 10.9807H45.7976C45.8477 11.6382 46.0647 12.1614 46.4488 12.5504C46.8328 12.934 47.3254 13.1257 47.9265 13.1257C48.394 13.1257 48.7808 13.0161 49.0869 12.797C49.3875 12.5778 49.7298 12.1724 50.1138 11.5807L51.7001 12.4518C51.4552 12.8627 51.1964 13.2148 50.9236 13.5079C50.6509 13.801 50.3587 14.0421 50.047 14.2311C49.7353 14.4201 49.3986 14.5585 49.0368 14.6461C48.6751 14.7338 48.2827 14.7776 47.8597 14.7776C46.6463 14.7776 45.6724 14.3941 44.9377 13.627C44.203 12.8545 43.8356 11.83 43.8356 10.5534C43.8356 9.28776 44.1919 8.26322 44.9043 7.47974C45.6223 6.70721 46.574 6.32095 47.7595 6.32095C48.9561 6.32095 49.9023 6.69625 50.598 7.44686C51.2882 8.192 51.6333 9.22475 51.6333 10.5452L51.6249 10.9807ZM49.6964 9.46857C49.4348 8.48237 48.8031 7.98927 47.8012 7.98927C47.5731 7.98927 47.3588 8.02352 47.1584 8.092C46.958 8.16049 46.7758 8.25911 46.6116 8.38786C46.4474 8.51662 46.3068 8.67139 46.19 8.8522C46.0731 9.033 45.984 9.23846 45.9228 9.46857H49.6964ZM54.1834 14.5475V1.8584H56.8884C58.1852 1.8584 59.2093 1.98442 59.9607 2.23645C60.7677 2.483 61.4996 2.90213 62.1563 3.49385C63.4866 4.68825 64.1517 6.25794 64.1517 8.20295C64.1517 10.1534 63.4587 11.7313 62.0729 12.9367C61.3771 13.5394 60.648 13.9585 59.8855 14.1941C59.1731 14.4297 58.1629 14.5475 56.855 14.5475H54.1834ZM56.1286 12.7477H57.0052C57.8791 12.7477 58.6054 12.6573 59.1842 12.4765C59.7631 12.2847 60.2862 11.9806 60.7538 11.5642C61.7111 10.7041 62.1897 9.58363 62.1897 8.20295C62.1897 6.81131 61.7166 5.68267 60.7705 4.817C59.9189 4.04447 58.6638 3.65822 57.0052 3.65822H56.1286V12.7477ZM68.263 6.54285V14.5475H66.3845V6.54285H68.263ZM66.1007 3.21443C66.1007 2.89117 66.2204 2.61175 66.4597 2.37616C66.699 2.14057 66.9856 2.02277 67.3196 2.02277C67.6591 2.02277 67.9485 2.14057 68.1879 2.37616C68.4272 2.60627 68.5468 2.88843 68.5468 3.22265C68.5468 3.55686 68.4272 3.84176 68.1879 4.07735C67.9541 4.31294 67.6675 4.43074 67.3279 4.43074C66.9884 4.43074 66.699 4.31294 66.4597 4.07735C66.2204 3.84176 66.1007 3.55412 66.1007 3.21443ZM71.7982 6.54285L73.9021 11.0383L75.9976 6.54285H78.1098L73.8854 15.0981L69.6944 6.54285H71.7982ZM78.8149 10.4876C78.8149 9.33159 79.2351 8.34814 80.0755 7.53726C80.916 6.72639 81.9401 6.32095 83.1478 6.32095C84.3612 6.32095 85.3908 6.72913 86.2368 7.54548C87.0717 8.36184 87.4891 9.36447 87.4891 10.5534C87.4891 11.7533 87.0689 12.7586 86.2285 13.5695C85.3825 14.3749 84.3445 14.7776 83.1144 14.7776C81.8955 14.7776 80.8742 14.3667 80.0505 13.5449C79.2268 12.734 78.8149 11.7149 78.8149 10.4876ZM80.7351 10.5205C80.7351 11.3204 80.9521 11.9532 81.3863 12.4189C81.8315 12.8901 82.4187 13.1257 83.1478 13.1257C83.8825 13.1257 84.4697 12.8929 84.9094 12.4272C85.3491 11.9615 85.5689 11.3396 85.5689 10.5616C85.5689 9.7836 85.3491 9.16176 84.9094 8.69605C84.4641 8.22486 83.877 7.98927 83.1478 7.98927C82.4299 7.98927 81.8482 8.22486 81.403 8.69605C80.9577 9.16723 80.7351 9.77538 80.7351 10.5205ZM89.6218 6.54285H91.5003V7.25784C91.8453 6.90171 92.1515 6.65791 92.4186 6.52641C92.6913 6.38944 93.0141 6.32095 93.3871 6.32095C93.8824 6.32095 94.4 6.47984 94.9399 6.79762L94.08 8.49059C93.7238 8.23856 93.3759 8.11255 93.0364 8.11255C92.0123 8.11255 91.5003 8.8741 91.5003 10.3972V14.5475H89.6218V6.54285ZM102.341 6.88802V9.3453C101.912 8.83028 101.528 8.47689 101.188 8.28513C100.855 8.08789 100.462 7.98927 100.011 7.98927C99.3045 7.98927 98.7173 8.23308 98.2497 8.7207C97.7822 9.20833 97.5485 9.81922 97.5485 10.5534C97.5485 11.304 97.7739 11.9204 98.2247 12.4025C98.6811 12.8847 99.2627 13.1257 99.9696 13.1257C100.42 13.1257 100.818 13.0298 101.163 12.8381C101.497 12.6518 101.89 12.2902 102.341 11.7533V14.1941C101.578 14.5831 100.816 14.7776 100.053 14.7776C98.7952 14.7776 97.7433 14.3777 96.8973 13.5777C96.0513 12.7723 95.6283 11.7724 95.6283 10.578C95.6283 9.38364 96.0568 8.37554 96.914 7.5537C97.7711 6.73187 98.823 6.32095 100.07 6.32095C100.871 6.32095 101.628 6.50997 102.341 6.88802ZM106.185 6.54285V14.5475H104.306V6.54285H106.185ZM104.022 3.21443C104.022 2.89117 104.142 2.61175 104.381 2.37616C104.621 2.14057 104.907 2.02277 105.241 2.02277C105.581 2.02277 105.87 2.14057 106.11 2.37616C106.349 2.60627 106.469 2.88843 106.469 3.22265C106.469 3.55686 106.349 3.84176 106.11 4.07735C105.876 4.31294 105.589 4.43074 105.25 4.43074C104.91 4.43074 104.621 4.31294 104.381 4.07735C104.142 3.84176 104.022 3.55412 104.022 3.21443ZM108.326 10.4876C108.326 9.33159 108.746 8.34814 109.586 7.53726C110.427 6.72639 111.451 6.32095 112.659 6.32095C113.872 6.32095 114.902 6.72913 115.748 7.54548C116.583 8.36184 117 9.36447 117 10.5534C117 11.7533 116.58 12.7586 115.739 13.5695C114.893 14.3749 113.855 14.7776 112.625 14.7776C111.406 14.7776 110.385 14.3667 109.561 13.5449C108.738 12.734 108.326 11.7149 108.326 10.4876ZM110.246 10.5205C110.246 11.3204 110.463 11.9532 110.897 12.4189C111.342 12.8901 111.93 13.1257 112.659 13.1257C113.393 13.1257 113.981 12.8929 114.42 12.4272C114.86 11.9615 115.08 11.3396 115.08 10.5616C115.08 9.7836 114.86 9.16176 114.42 8.69605C113.975 8.22486 113.388 7.98927 112.659 7.98927C111.941 7.98927 111.359 8.22486 110.914 8.69605C110.469 9.16723 110.246 9.77538 110.246 10.5205Z" fill="#575C6B"/>
</svg>
