<svg width="39" height="40" viewBox="0 0 39 40" fill="none" xmlns="http://www.w3.org/2000/svg">
<path fill-rule="evenodd" clip-rule="evenodd" d="M37.7078 20.0338C37.7078 30.2002 29.4663 38.4417 19.2999 38.4417C9.13348 38.4417 0.891968 30.2002 0.891968 20.0338C0.891968 9.86737 9.13348 1.62585 19.2999 1.62585C29.4663 1.62585 37.7078 9.86737 37.7078 20.0338Z" fill="#FEFEFE"/>
<mask id="mask0" mask-type="alpha" maskUnits="userSpaceOnUse" x="0" y="0" width="39" height="40">
<path fill-rule="evenodd" clip-rule="evenodd" d="M0.210205 0.454224H38.9338V39.7422H0.210205V0.454224Z" fill="white"/>
</mask>
<g mask="url(#mask0)">
<path fill-rule="evenodd" clip-rule="evenodd" d="M32.3153 25.7431C29.0799 25.7431 26.4565 23.082 26.4565 19.7993C26.4565 16.5166 29.0799 13.8555 32.3153 13.8555C35.1393 13.8555 37.5053 15.9471 38.0595 18.6454L35.1133 18.6355C34.6618 17.5527 33.6009 16.8213 32.3692 16.8213C30.727 16.8213 29.3956 18.1716 29.3956 19.8377C29.3956 21.5041 30.727 22.855 32.3692 22.855C33.6009 22.855 34.6749 22.1315 35.1264 21.0486L38.072 21.0347C37.5259 23.7435 35.1466 25.7431 32.3153 25.7431ZM19.7178 25.8828C16.4824 25.8828 13.6678 23.2424 13.6678 19.9593L13.6644 9.95813H16.6033L16.6073 15.5479C17.4223 14.6115 18.3504 13.9874 19.7178 13.9947C22.9531 14.013 25.5763 16.6563 25.5763 19.939C25.5763 23.2217 22.9531 25.8828 19.7178 25.8828ZM10.0624 25.7893V24.1633C9.2478 25.0997 8.31949 25.7238 6.95208 25.7164C3.71663 25.6986 1.0934 23.0549 1.0934 19.7722C1.0934 16.4895 3.71663 13.8284 6.95208 13.8284C10.1877 13.8284 13.0024 16.4687 13.0024 19.7516L13.0057 25.7685L10.0624 25.7893ZM19.572 0.454224C8.87894 0.454224 0.210205 9.2494 0.210205 20.0981C0.210205 30.9471 8.87894 39.7423 19.572 39.7423C30.265 39.7423 38.9338 30.9471 38.9338 20.0981C38.9338 9.2494 30.265 0.454224 19.572 0.454224Z" fill="#828282"/>
</g>
<path fill-rule="evenodd" clip-rule="evenodd" d="M19.6408 16.625C17.9467 16.625 16.5728 17.9986 16.5728 19.6929C16.5728 21.387 17.9467 22.761 19.6408 22.761C21.3349 22.761 22.7088 21.387 22.7088 19.6929C22.7088 17.9986 21.3349 16.625 19.6408 16.625Z" fill="#828282"/>
<path fill-rule="evenodd" clip-rule="evenodd" d="M6.68706 16.625C4.99292 16.625 3.61908 17.9986 3.61908 19.6929C3.61908 21.387 4.99292 22.761 6.68706 22.761C8.38121 22.761 9.75505 21.387 9.75505 19.6929C9.75505 17.9986 8.38121 16.625 6.68706 16.625Z" fill="#828282"/>
</svg>
