<svg width="16" height="16" viewBox="0 0 16 16" fill="none" xmlns="http://www.w3.org/2000/svg">
<path fill-rule="evenodd" clip-rule="evenodd" d="M13.3334 8.00369V7.38369C13.3334 7.0155 13.6319 6.71703 14 6.71703C14.3682 6.71703 14.6667 7.0155 14.6667 7.38369V8.00407C14.6649 11.2518 12.5271 14.1114 9.41263 15.0323C6.29821 15.9531 2.94906 14.7158 1.18141 11.9913C-0.586246 9.26674 -0.351325 5.70408 1.75878 3.23526C3.86888 0.766444 7.3515 -0.0204076 10.318 1.30141C10.6544 1.45126 10.8055 1.84538 10.6557 2.18169C10.5058 2.51801 10.1117 2.66916 9.77538 2.51931C7.3482 1.43783 4.49879 2.08161 2.77234 4.10155C1.04589 6.12149 0.853685 9.0364 2.29995 11.2656C3.74621 13.4947 6.48642 14.5071 9.03459 13.7537C11.5828 13.0002 13.3319 10.6605 13.3334 8.00369ZM5.8048 6.86562L7.3334 8.39422L14.1953 1.53229C14.4557 1.27194 14.8778 1.27194 15.1381 1.53229C15.3985 1.79264 15.3985 2.21475 15.1381 2.4751L7.8048 9.80843C7.54445 10.0688 7.12234 10.0688 6.86199 9.80843L4.86199 7.80843C4.60164 7.54808 4.60164 7.12597 4.86199 6.86562C5.12234 6.60527 5.54445 6.60527 5.8048 6.86562Z" fill="black"/>
<mask id="mask0" mask-type="alpha" maskUnits="userSpaceOnUse" x="0" y="0" width="16" height="16">
<path fill-rule="evenodd" clip-rule="evenodd" d="M13.3334 8.00369V7.38369C13.3334 7.0155 13.6319 6.71703 14 6.71703C14.3682 6.71703 14.6667 7.0155 14.6667 7.38369V8.00407C14.6649 11.2518 12.5271 14.1114 9.41263 15.0323C6.29821 15.9531 2.94906 14.7158 1.18141 11.9913C-0.586246 9.26674 -0.351325 5.70408 1.75878 3.23526C3.86888 0.766444 7.3515 -0.0204076 10.318 1.30141C10.6544 1.45126 10.8055 1.84538 10.6557 2.18169C10.5058 2.51801 10.1117 2.66916 9.77538 2.51931C7.3482 1.43783 4.49879 2.08161 2.77234 4.10155C1.04589 6.12149 0.853685 9.0364 2.29995 11.2656C3.74621 13.4947 6.48642 14.5071 9.03459 13.7537C11.5828 13.0002 13.3319 10.6605 13.3334 8.00369ZM5.8048 6.86562L7.3334 8.39422L14.1953 1.53229C14.4557 1.27194 14.8778 1.27194 15.1381 1.53229C15.3985 1.79264 15.3985 2.21475 15.1381 2.4751L7.8048 9.80843C7.54445 10.0688 7.12234 10.0688 6.86199 9.80843L4.86199 7.80843C4.60164 7.54808 4.60164 7.12597 4.86199 6.86562C5.12234 6.60527 5.54445 6.60527 5.8048 6.86562Z" fill="white"/>
</mask>
<g mask="url(#mask0)">
<rect y="-0.000488281" width="16" height="16" fill="white"/>
</g>
</svg>
