<svg width="97" height="13" viewBox="0 0 97 13" fill="none" xmlns="http://www.w3.org/2000/svg">
<path fill-rule="evenodd" clip-rule="evenodd" d="M0.329956 6.51124C0.329956 5.03575 0.879387 3.76847 1.97827 2.70938C3.07255 1.65028 4.3875 1.12074 5.92318 1.12074C7.44046 1.12074 8.74162 1.6548 9.82671 2.72295C10.9164 3.7911 11.4612 5.07422 11.4612 6.57234C11.4612 8.07952 10.9141 9.35811 9.81981 10.4082C8.72093 11.4627 7.39448 11.99 5.84042 11.99C4.46567 11.99 3.23117 11.5216 2.13689 10.5847C0.932261 9.54821 0.329956 8.19041 0.329956 6.51124ZM1.95067 6.5316C1.95067 7.69027 2.34607 8.64299 3.1369 9.38979C3.92313 10.1366 4.83118 10.51 5.86109 10.51C6.97836 10.51 7.9209 10.1298 8.68874 9.36943C9.45658 8.6 9.84049 7.66312 9.84049 6.55876C9.84049 5.44082 9.46117 4.50394 8.70253 3.74809C7.94849 2.98772 7.01515 2.60753 5.90247 2.60753C4.7944 2.60753 3.85876 2.98772 3.09552 3.74809C2.33228 4.49942 1.95067 5.42725 1.95067 6.5316ZM13.3057 5.18762H14.8644V5.79863C15.4069 5.26908 16.0184 5.00431 16.6989 5.00431C17.4805 5.00431 18.0897 5.24646 18.5265 5.73074C18.9036 6.14261 19.0921 6.81472 19.0921 7.74709V11.8002H17.5334V8.10691C17.5334 7.45516 17.4415 7.00482 17.2575 6.75589C17.0782 6.50243 16.7518 6.3757 16.2782 6.3757C15.7633 6.3757 15.3977 6.54316 15.1816 6.87809C14.9701 7.20849 14.8644 7.78556 14.8644 8.6093V11.8002H13.3057V5.18762ZM22.7229 0.333374V11.8001H21.1711V0.333374H22.7229ZM26.3606 5.18744V11.8H24.8088V5.18744H26.3606ZM24.5744 2.43792C24.5744 2.17089 24.6732 1.94006 24.8709 1.74544C25.0686 1.55082 25.3054 1.45351 25.5813 1.45351C25.8618 1.45351 26.1008 1.55082 26.2986 1.74544C26.4963 1.93554 26.5951 2.16862 26.5951 2.44471C26.5951 2.7208 26.4963 2.95615 26.2986 3.15077C26.1054 3.34539 25.8687 3.4427 25.5882 3.4427C25.3077 3.4427 25.0686 3.34539 24.8709 3.15077C24.6732 2.95615 24.5744 2.71854 24.5744 2.43792ZM28.4466 5.18762H30.0052V5.79863C30.5478 5.26908 31.1593 5.00431 31.8397 5.00431C32.6214 5.00431 33.2306 5.24646 33.6674 5.73074C34.0444 6.14261 34.2329 6.81472 34.2329 7.74709V11.8002H32.6742V8.10691C32.6742 7.45516 32.5823 7.00482 32.3984 6.75589C32.2191 6.50243 31.8926 6.3757 31.419 6.3757C30.9041 6.3757 30.5386 6.54316 30.3225 6.87809C30.111 7.20849 30.0052 7.78556 30.0052 8.6093V11.8002H28.4466V5.18762ZM42.4293 8.85371H37.6154C37.6568 9.39683 37.8361 9.82906 38.1534 10.1504C38.4706 10.4672 38.8775 10.6256 39.3741 10.6256C39.7603 10.6256 40.0798 10.5351 40.3327 10.3541C40.581 10.173 40.8638 9.83812 41.181 9.34931L42.4914 10.0689C42.2891 10.4084 42.0753 10.6992 41.85 10.9413C41.6247 11.1835 41.3833 11.3826 41.1258 11.5388C40.8684 11.6949 40.5902 11.8092 40.2913 11.8816C39.9925 11.954 39.6683 11.9902 39.3189 11.9902C38.3166 11.9902 37.512 11.6734 36.905 11.0398C36.2981 10.4016 35.9947 9.55525 35.9947 8.50068C35.9947 7.45516 36.2889 6.6088 36.8775 5.96157C37.4706 5.3234 38.2568 5.00431 39.2361 5.00431C40.2247 5.00431 41.0063 5.31434 41.581 5.93441C42.1511 6.54996 42.4362 7.40311 42.4362 8.49389L42.4293 8.85371ZM40.8362 7.60463C40.6201 6.78994 40.0982 6.38261 39.2706 6.38261C39.0821 6.38261 38.9051 6.41089 38.7396 6.46747C38.5741 6.52404 38.4235 6.60551 38.2878 6.71187C38.1522 6.81824 38.0361 6.9461 37.9396 7.09546C37.843 7.24482 37.7694 7.41454 37.7189 7.60463H40.8362ZM44.5428 11.8003V1.31798H46.7773C47.8486 1.31798 48.6946 1.42208 49.3153 1.63028C49.9819 1.83395 50.5866 2.18019 51.1291 2.669C52.228 3.65568 52.7774 4.95238 52.7774 6.55913C52.7774 8.1704 52.205 9.47389 51.0601 10.4696C50.4854 10.9675 49.8831 11.3137 49.2532 11.5083C48.6647 11.703 47.8302 11.8003 46.7497 11.8003H44.5428ZM46.1497 10.3135H46.8739C47.5958 10.3135 48.1958 10.2388 48.6739 10.0894C49.1521 9.93102 49.5843 9.67982 49.9705 9.33584C50.7613 8.62525 51.1567 7.69969 51.1567 6.55912C51.1567 5.4095 50.7659 4.47715 49.9843 3.76203C49.2808 3.12386 48.2441 2.80478 46.8739 2.80478H46.1497V10.3135ZM56.1737 5.18744V11.8H54.622V5.18744H56.1737ZM54.3875 2.43792C54.3875 2.17089 54.4864 1.94006 54.6841 1.74544C54.8818 1.55082 55.1186 1.45351 55.3944 1.45351C55.6749 1.45351 55.914 1.55082 56.1117 1.74544C56.3094 1.93554 56.4083 2.16862 56.4083 2.44471C56.4083 2.7208 56.3094 2.95615 56.1117 3.15077C55.9186 3.34539 55.6818 3.4427 55.4013 3.4427C55.1209 3.4427 54.8818 3.34539 54.6841 3.15077C54.4864 2.95615 54.3875 2.71854 54.3875 2.43792ZM59.0941 5.18744L60.8321 8.90105L62.5632 5.18744H64.308L60.8183 12.2548L57.3562 5.18744H59.0941ZM64.8906 8.44636C64.8906 7.49136 65.2377 6.67895 65.932 6.00909C66.6263 5.33924 67.4722 5.00431 68.47 5.00431C69.4723 5.00431 70.3229 5.3415 71.0218 6.01588C71.7114 6.69027 72.0563 7.51852 72.0563 8.50068C72.0563 9.49188 71.7091 10.3224 71.0149 10.9923C70.316 11.6576 69.4585 11.9902 68.4424 11.9902C67.4355 11.9902 66.5918 11.6508 65.9113 10.9719C65.2308 10.302 64.8906 9.4602 64.8906 8.44636ZM66.4768 8.47363C66.4768 9.13444 66.6561 9.65719 67.0148 10.0419C67.3826 10.4311 67.8676 10.6258 68.47 10.6258C69.0769 10.6258 69.5619 10.4334 69.9252 10.0487C70.2884 9.66398 70.47 9.15028 70.47 8.50758C70.47 7.86488 70.2884 7.35118 69.9252 6.96646C69.5573 6.57722 69.0723 6.38261 68.47 6.38261C67.8768 6.38261 67.3964 6.57722 67.0285 6.96646C66.6607 7.3557 66.4768 7.85809 66.4768 8.47363ZM73.818 5.18762H75.3698V5.77827C75.6548 5.48407 75.9077 5.28267 76.1284 5.17404C76.3537 5.06089 76.6204 5.00431 76.9284 5.00431C77.3376 5.00431 77.7652 5.13557 78.2112 5.39808L77.5009 6.79662C77.2066 6.58843 76.9192 6.48433 76.6388 6.48433C75.7928 6.48433 75.3698 7.11344 75.3698 8.37168V11.8002H73.818V5.18762ZM84.3248 5.47276V7.50268C83.9708 7.07724 83.6535 6.78531 83.3731 6.6269C83.0972 6.46396 82.7731 6.38249 82.4007 6.38249C81.8167 6.38249 81.3317 6.5839 80.9454 6.98672C80.5592 7.38954 80.3661 7.89418 80.3661 8.50068C80.3661 9.12074 80.5523 9.62992 80.9248 10.0282C81.3018 10.4265 81.7822 10.6256 82.3662 10.6256C82.7386 10.6256 83.0673 10.5464 83.3524 10.388C83.6283 10.2341 83.9524 9.93543 84.3248 9.49188V11.5082C83.6949 11.8296 83.065 11.9902 82.4351 11.9902C81.396 11.9902 80.5271 11.6598 79.8282 10.999C79.1293 10.3337 78.7799 9.50772 78.7799 8.52104C78.7799 7.53436 79.1339 6.70158 79.842 6.02267C80.55 5.34376 81.419 5.00431 82.4489 5.00431C83.111 5.00431 83.7363 5.16046 84.3248 5.47276ZM87.5004 5.18744V11.8H85.9486V5.18744H87.5004ZM85.7142 2.43792C85.7142 2.17089 85.813 1.94006 86.0107 1.74544C86.2085 1.55082 86.4452 1.45351 86.7211 1.45351C87.0016 1.45351 87.2407 1.55082 87.4384 1.74544C87.6361 1.93554 87.7349 2.16862 87.7349 2.44471C87.7349 2.7208 87.6361 2.95615 87.4384 3.15077C87.2453 3.34539 87.0085 3.4427 86.728 3.4427C86.4475 3.4427 86.2085 3.34539 86.0107 3.15077C85.813 2.95615 85.7142 2.71854 85.7142 2.43792ZM89.2691 8.44636C89.2691 7.49136 89.6163 6.67895 90.3105 6.00909C91.0048 5.33924 91.8508 5.00431 92.8485 5.00431C93.8508 5.00431 94.7014 5.3415 95.4003 6.01588C96.09 6.69027 96.4348 7.51852 96.4348 8.50068C96.4348 9.49188 96.0877 10.3224 95.3934 10.9923C94.6945 11.6576 93.837 11.9902 92.8209 11.9902C91.814 11.9902 90.9703 11.6508 90.2898 10.9719C89.6094 10.302 89.2691 9.4602 89.2691 8.44636ZM90.8554 8.47363C90.8554 9.13444 91.0347 9.65719 91.3933 10.0419C91.7611 10.4311 92.2462 10.6258 92.8485 10.6258C93.4554 10.6258 93.9405 10.4334 94.3037 10.0487C94.6669 9.66398 94.8485 9.15028 94.8485 8.50758C94.8485 7.86488 94.6669 7.35118 94.3037 6.96646C93.9359 6.57722 93.4508 6.38261 92.8485 6.38261C92.2554 6.38261 91.7749 6.57722 91.4071 6.96646C91.0393 7.3557 90.8554 7.85809 90.8554 8.47363Z" fill="white"/>
</svg>
