<svg width="580" height="635" viewBox="0 0 580 635" fill="none" xmlns="http://www.w3.org/2000/svg">
<path opacity="0.57885" d="M660.656 67.0073C721.92 147.575 701.52 268.988 615.091 338.192L302.764 588.271C216.335 657.474 96.6063 648.262 35.3423 567.694C-25.9217 487.127 -5.52149 365.714 80.9075 296.51L393.234 46.431C479.663 -22.7725 599.392 -13.5601 660.656 67.0073Z" fill="#E3E3E3" fill-opacity="0.501925"/>
<mask id="mask0" mask-type="alpha" maskUnits="userSpaceOnUse" x="-1" y="0" width="697" height="635">
<path d="M660.656 67.0073C721.92 147.575 701.52 268.988 615.091 338.192L302.764 588.271C216.335 657.474 96.6063 648.262 35.3423 567.694C-25.9217 487.127 -5.52149 365.714 80.9075 296.51L393.234 46.431C479.663 -22.7725 599.392 -13.5601 660.656 67.0073Z" fill="white"/>
</mask>
<g mask="url(#mask0)">
</g>
</svg>
